<?xml version="1.0" encoding="UTF-8" standalone="no"?>
<!-- Created with Inkscape (http://www.inkscape.org/) -->

<svg
   width="135.46666mm"
   height="135.46666mm"
   viewBox="0 0 135.46666 135.46666"
   version="1.1"
   id="svg5"
   xmlns="http://www.w3.org/2000/svg"
   xmlns:svg="http://www.w3.org/2000/svg">
  <defs
     id="defs2" />
  <g
     id="layer1"
     transform="translate(-39.70417,-32.95417)">
    <g
       id="g848"
       transform="matrix(0.15691731,0,0,0.15691731,67.266669,60.516669)">
      <path
         d="M 512,138.59766 V 373.40234 C 512,449.82422 449.82422,512 373.40234,512 H 138.59766 C 62.175781,512 0,449.82422 0,373.40234 V 138.59766 C 0,62.175781 62.175781,0 138.59766,0 H 373.40234 C 449.82422,0 512,62.175781 512,138.59766 Z m 0,0"
         fill="#ff5e95"
         id="path824" />
      <path
         d="M 512,138.59766 V 373.40234 C 512,449.82422 449.82422,512 373.40234,512 H 256.14062 V 0 H 373.40234 C 449.82422,0 512,62.175781 512,138.59766 Z m 0,0"
         fill="#ff3980"
         id="path826" />
      <path
         d="m 256,116.00391 c -77.19141,0 -139.99609,62.80468 -139.99609,139.99609 0,77.19141 62.80468,139.99609 139.99609,139.99609 77.19141,0 139.99609,-62.80468 139.99609,-139.99609 0,-77.19141 -62.80468,-139.99609 -139.99609,-139.99609 z m 0,249.97656 c -60.64453,0 -109.98047,-49.33594 -109.98047,-109.98047 0,-60.64453 49.33594,-109.98047 109.98047,-109.98047 60.64453,0 109.98047,49.33594 109.98047,109.98047 0,60.64453 -49.33594,109.98047 -109.98047,109.98047 z m 0,0"
         fill="#ffffff"
         id="path828" />
      <g
         fill="#96fff6"
         id="g834">
        <path
           d="m 399.34375,66.285156 c -22.80859,0 -41.36719,18.554688 -41.36719,41.367184 0,22.8125 18.5586,41.3711 41.36719,41.3711 22.8125,0 41.37109,-18.5586 41.37109,-41.3711 0,-22.812496 -18.55859,-41.367184 -41.37109,-41.367184 z m 0,0"
           id="path830" />
        <path
           d="m 395.99609,256 c 0,77.19141 -62.80468,139.99609 -139.99609,139.99609 v -30.01562 c 60.64453,0 109.98047,-49.33594 109.98047,-109.98047 0,-60.64453 -49.33594,-109.98047 -109.98047,-109.98047 v -30.01562 c 77.19141,0 139.99609,62.80468 139.99609,139.99609 z m 0,0"
           id="path832" />
      </g>
    </g>
    <circle
       style="fill:#000000;fill-opacity:0.10643;stroke:none;stroke-width:2.85568"
       id="path1380"
       cx="107.4375"
       cy="100.6875"
       r="67.73333" />
  </g>
</svg>
