<?xml version="1.0" encoding="UTF-8" standalone="no"?>
<!-- Created with Inkscape (http://www.inkscape.org/) -->

<svg
   width="135.46666mm"
   height="135.46666mm"
   viewBox="0 0 135.46666 135.46666"
   version="1.1"
   id="svg5"
   xmlns="http://www.w3.org/2000/svg"
   xmlns:svg="http://www.w3.org/2000/svg">
  <defs
     id="defs2" />
  <g
     id="layer1"
     transform="translate(-31.499992,-65.812508)">
    <circle
       style="fill:#000000;fill-opacity:0.10643016;stroke:none;stroke-width:2.85568"
       id="path1380"
       cx="99.233322"
       cy="133.54584"
       r="67.73333" />
    <g
       id="g842"
       transform="matrix(0.16716021,0,0,0.16716021,61.11002,90.752816)">
      <path
         d="m 456.12891,307.40234 v 189.57422 c 0,8.29297 -6.73047,15.02344 -15.01954,15.02344 h -85.5039 c -8.29297,0 -15.02344,-6.73047 -15.02344,-15.02344 V 301.44531 c 0,-16.90234 -13.75,-30.65234 -30.65234,-30.65234 -0.99219,0 -1.96485,0.0469 -2.9375,0.13672 -15.53125,1.48437 -27.73047,14.60156 -27.73047,30.51562 v 195.53125 c 0,8.29297 -6.71875,15.02344 -15.01953,15.02344 h -89.6211 c -9.23047,0 -16.7539,-7.51953 -16.7539,-16.76562 V 168.38281 c 0,-9.24218 7.52343,-16.76562 16.7539,-16.76562 h 87.88672 c 9.2461,0 16.75391,7.52344 16.75391,16.76562 v 7.10157 c 8.78515,-4.32813 18.10937,-7.51172 27.73047,-9.44532 6.62109,-1.33984 13.39062,-2.09375 20.22265,-2.21093 26.96875,-0.50391 53.20313,8.71093 73.83594,25.9375 35,29.21093 55.07813,72.09375 55.07813,117.63671 z m 0,0"
         fill="#2682ff"
         id="path824" />
      <g
         fill="#6aa9ff"
         id="g830">
        <path
           d="m 121.90625,169.16406 v 325.28906 c 0,9.67579 -7.87109,17.54688 -17.54687,17.54688 H 18.046875 C 8.371094,512 0.5,504.12891 0.5,494.45312 V 169.16406 c 0,-9.67187 7.871094,-17.54687 17.546875,-17.54687 h 86.312505 c 9.67578,0 17.54687,7.875 17.54687,17.54687 z m 0,0"
           id="path826" />
        <path
           d="m 122.40625,61.199219 c 0,33.746093 -27.460938,61.199221 -61.207031,61.199221 C 27.460938,122.39844 0,94.945312 0,61.199219 0,27.449219 27.460938,0 61.199219,0 94.945312,0 122.40625,27.449219 122.40625,61.199219 Z m 0,0"
           id="path828" />
      </g>
    </g>
  </g>
</svg>
