<?xml version="1.0" encoding="UTF-8" standalone="no"?>
<!-- Created with Inkscape (http://www.inkscape.org/) -->

<svg
   width="135.46666mm"
   height="135.46666mm"
   viewBox="0 0 135.46666 135.46666"
   version="1.1"
   id="svg5"
   inkscape:version="1.1 (c68e22c387, 2021-05-23)"
   sodipodi:docname="icon_512x512_youtube.svg"
   xmlns:inkscape="http://www.inkscape.org/namespaces/inkscape"
   xmlns:sodipodi="http://sodipodi.sourceforge.net/DTD/sodipodi-0.dtd"
   xmlns="http://www.w3.org/2000/svg"
   xmlns:svg="http://www.w3.org/2000/svg">
  <sodipodi:namedview
     id="namedview7"
     pagecolor="#ffffff"
     bordercolor="#666666"
     borderopacity="1.0"
     inkscape:pageshadow="2"
     inkscape:pageopacity="0.0"
     inkscape:pagecheckerboard="0"
     inkscape:document-units="mm"
     showgrid="false"
     fit-margin-top="0"
     fit-margin-left="0"
     fit-margin-right="0"
     fit-margin-bottom="0"
     inkscape:zoom="0.47037037"
     inkscape:cx="260.43307"
     inkscape:cy="549.56693"
     inkscape:window-width="1920"
     inkscape:window-height="1027"
     inkscape:window-x="1358"
     inkscape:window-y="-8"
     inkscape:window-maximized="1"
     inkscape:current-layer="layer1" />
  <defs
     id="defs2" />
  <g
     inkscape:label="Capa 1"
     inkscape:groupmode="layer"
     id="layer1"
     transform="translate(-35.76667,-2.5791702)">
    <circle
       style="fill:#000000;fill-opacity:0.10643;stroke:none;stroke-width:2.85568"
       id="path1380"
       cx="103.5"
       cy="70.3125"
       r="67.73333" />
    <g
       id="g842"
       transform="matrix(0.1586967,0,0,0.1586967,62.873645,39.462113)">
      <path
         d="m 512,175.55078 v 38.3125 c 0,40.98828 -3.60938,81.80078 -3.76953,83.52344 l -0.0508,0.51953 c -0.51172,4.02734 -5.41016,39.90234 -22.38281,58.35547 -20.38282,22.41406 -43.35547,24.84375 -54.39454,26.01172 -1.05078,0.10937 -2.01171,0.21093 -2.87109,0.33203 l -0.89062,0.0898 c -67.6875,4.92188 -169.91016,5.58985 -170.92969,5.60156 h -0.3125 c -0.48828,-0.0117 -2.02735,-0.0312 -4.4375,-0.0703 -23.15235,-0.37109 -126.98438,-2.1914 -162.371096,-5.5625 l -1.191406,-0.16015 c -1.21875,-0.21875 -3.019532,-0.41797 -5.097657,-0.66016 C 70.136719,380.33594 45.644531,377.53516 26.28125,356.33984 8.539062,337.69141 4.230469,301.69531 3.789062,297.64453 L 3.769531,297.38672 C 3.609375,295.66406 0,254.85156 0,213.86328 v -38.3125 C 0,134.56641 3.609375,93.742188 3.769531,92.019531 L 3.820312,91.5 C 4.332031,87.46875 9.230469,51.597656 26.203125,33.152344 46.867188,10.429688 69.957031,7.761719 81.070312,6.480469 81.941406,6.378906 82.738281,6.289062 83.460938,6.191406 L 84.371094,6.101562 C 145.02734,1.730469 232.44531,0.710938 251.96094,0.539062 254.41797,0.511719 255.80078,0.5 255.91016,0.5 h 0.17968 c 1.03125,0.011719 103.24219,0.679688 170.92969,5.601562 l 0.90235,0.089844 c 0.75781,0.097656 1.60937,0.199219 2.53906,0.308594 11.23047,1.28125 34.58203,3.941406 55.17578,25.875 17.82422,18.632812 22.14453,55.296875 22.57422,59.414062 l 0.0195,0.230469 C 508.39062,93.742188 512,134.56641 512,175.55078 Z m 0,0"
         fill="#ff5b5b"
         id="path824" />
      <path
         d="m 512,175.55078 v 38.3125 c 0,40.98828 -3.60938,81.80078 -3.76953,83.52344 l -0.0508,0.51953 c -0.51172,4.02734 -5.41016,39.90234 -22.38281,58.35547 -20.38282,22.41406 -43.35547,24.84375 -54.39454,26.01172 -1.05078,0.10937 -2.01171,0.21093 -2.87109,0.33203 l -0.89062,0.0898 c -67.6875,4.92188 -169.91016,5.58985 -170.92969,5.60156 h -0.3125 c -0.48828,-0.0117 -2.02735,-0.0312 -4.4375,-0.0703 V 0.539062 C 254.41797,0.511719 255.80078,0.5 255.91016,0.5 h 0.17968 c 1.03125,0.011719 103.24219,0.679688 170.92969,5.601562 l 0.90235,0.089844 c 0.75781,0.097656 1.60937,0.199219 2.53906,0.308594 11.23047,1.28125 34.58203,3.941406 55.17578,25.875 17.82422,18.632812 22.14453,55.296875 22.57422,59.414062 l 0.0195,0.230469 C 508.39062,93.742188 512,134.56641 512,175.55078 Z m 0,0"
         fill="#ff3636"
         id="path826" />
      <path
         d="m 345.60937,189.79297 c -0.0195,7.6289 -4.21875,14.60937 -10.92968,18.22265 L 251.96094,252.5 221.56641,268.83984 c -3.10938,1.67188 -6.48047,2.51172 -9.85157,2.51172 -3.67968,0 -7.33984,-1 -10.65234,-2.96875 -6.33984,-3.79297 -10.12109,-10.46094 -10.12109,-17.84375 V 127.82422 c 0,-7.41016 3.8125,-14.08985 10.18359,-17.8711 6.37891,-3.78125 14.07031,-3.91015 20.57031,-0.35937 l 30.26563,16.5625 82.84765,45.33203 c 6.69141,3.66406 10.83203,10.68359 10.80078,18.30469 z m 0,0"
         fill="#ffffff"
         id="path828" />
      <path
         d="m 345.60937,189.79297 c -0.0195,7.6289 -4.21875,14.60937 -10.92968,18.22265 L 251.96094,252.5 V 126.15625 l 82.84765,45.33203 c 6.69141,3.66406 10.83203,10.68359 10.80078,18.30469 z m 0,0"
         fill="#96fff6"
         id="path830" />
    </g>
  </g>
</svg>
